<?xml version="1.0" encoding="UTF-8"?>
<svg id="Layer_4" data-name="Layer 4" xmlns="http://www.w3.org/2000/svg" xmlns:xlink="http://www.w3.org/1999/xlink" viewBox="0 0 483.4273925002 524.1850585938">
  <defs>
    <linearGradient id="linear-gradient" x1="148.3847216215" y1="401.7044578267" x2="311.5786507168" y2="98.408288654" gradientUnits="userSpaceOnUse">
      <stop offset="0" stop-color="#d7206f"/>
      <stop offset=".2376883234" stop-color="#c51b52"/>
      <stop offset=".9999996933" stop-color="#d4206d"/>
    </linearGradient>
    <radialGradient id="radial-gradient" cx="202.8956361482" cy="254.75" fx="388.5431113082" fy="254.75" r="185.7407774379" gradientTransform="translate(0 7.6472473489) scale(1 .9699813647)" gradientUnits="userSpaceOnUse">
      <stop offset="0" stop-color="#ef5ba1"/>
      <stop offset="1" stop-color="#e54498"/>
    </radialGradient>
    <linearGradient id="linear-gradient-2" x1="266.7056642244" y1="431.5350036621" x2="307.065649576" y2="431.5350036621" gradientUnits="userSpaceOnUse">
      <stop offset="0" stop-color="#e54498"/>
      <stop offset=".0115806591" stop-color="#e44296"/>
      <stop offset=".2299388731" stop-color="#d62f7e"/>
      <stop offset=".4597088104" stop-color="#cb216c"/>
      <stop offset=".7064416096" stop-color="#c51962"/>
      <stop offset="1" stop-color="#c4175f"/>
    </linearGradient>
    <linearGradient id="linear-gradient-3" x1="393.3431956457" y1="495.3084200791" x2="171.7621877102" y2="294.5473308149" gradientUnits="userSpaceOnUse">
      <stop offset="0" stop-color="#e54498"/>
      <stop offset=".185869405" stop-color="#dd3485"/>
      <stop offset=".4282746671" stop-color="#d72673"/>
      <stop offset=".6893706364" stop-color="#d31d69"/>
      <stop offset="1" stop-color="#d21b66"/>
    </linearGradient>
    <linearGradient id="linear-gradient-4" x1="211.8374365897" y1="325.7815222506" x2="55.6230123674" y2="194.3386336379" gradientUnits="userSpaceOnUse">
      <stop offset="0" stop-color="#db3f96"/>
      <stop offset="1" stop-color="#d21b66"/>
    </linearGradient>
  </defs>
  <path d="m113.3656395316,428.0800170898c12.9099273682-28.5016784668,14.2295570054-59.5060040703,27.1394691147-88.0076825371,18.5063323975-40.8570861816,33.9142396601-83.7903521308,52.4205262812-124.6474535713C226.1426912019,142.0902709961,274.0484703421,73.3345489502,307.2656639457,0c25.7866516113,23.291973114,51.5733337402,46.583946228,77.3599853516,69.8759155273l-236.9099731445,360.9738464355-34.3500366211-2.769744873Z" style="fill: url(#linear-gradient);"/>
  <path d="m151.3656373689,341.2700195312l-37.8599853516,86.4699707031-.1400146484.3400268555,63.8699951172,5.1500244141,15.0200195312,1.2099609375,72.3699951172,5.8500366211.6400146484.049987793c.4899902344.0399780273.9699707031.049987793,1.4400024414.049987793l40.3599853516,3.9099731445,73.0700073242,64.7800292969.4899902344.4199829102-43.4799804688-5.8099975586-171.049987793-20.8999633789-69.6800537109-8.5100097656c-17.3799438477-2.1300048828-29.3699951172-16.9800415039-29.2799682617-33.2300415039.0299682617-4.0999755859.8200073242-8.2799682617,2.4799804688-12.3599853516l55.6799926758-137.0399780273,22.4200439453-55.1699829102,24.8999633789-61.3000488281,4.8900146484-12.049987793,15.4199829102-36.8399658203-27.2099609375,14.8800048828-.0700073242.0299682617c-.2200317383.1099853516-.450012207.2299804688-.6699829102.3499755859l-3.6300048828,2-72.4100341797,40.0100097656-27.8999633789,15.4100341797h-.0200195312l-11.7899780273,6.5100097656c-.0500488281.0299682617-.1000366211.0599975586-.1400146484.0799560547-.2300415039.1300048828-.450012207.2600097656-.6600341797.4100341797-.0700073242.0399780273-.1399536133.0899658203-.2099609375.1400146484-.3800048828.2599487305-.75.5299682617-1.0800170898.8199462891-.0200195312.0100097656-.0300292969.0300292969-.049987793.0400390625q-.0100097656.0100097656-.0200195312.0199584961c-.2399902344.2100219727-.4799804688.4300537109-.700012207.6500244141-.0700073242.0700073242-.1300048828.1300048828-.1900024414.200012207-.0299682617.0200195312-.049987793.049987793-.0700073242.0700073242-.1199951172.1199951172-.2299804688.25-.3299560547.3699951172-.1900024414.2099609375-.3600463867.4299926758-.5200195312.6499633789-.1300048828.1700439453-.25.3400268555-.3599853516.5100097656-.0900268555.1300048828-.1699829102.25-.25.3800048828-.0900268555.1300048828-.1600341797.2600097656-.2399902344.4000244141-.0300292969.0599975586-.0599975586.1199951172-.0900268555.1799926758-.0200195312.0299682617-.0399780273.0599975586-.049987793.0899658203-.1099853516.1800537109-.200012207.3600463867-.2800292969.5400390625-.1099853516.2299804688-.2199707031.4599609375-.3099975586.6900024414-.0799560547.200012207-.1499633789.3900146484-.2199707031.5899658203q0,.0100097656-.0100097656.0200195312c-.0300292969.1199951172-.0800170898.2600097656-.1199951172.3900146484-.0100097656.0199584961-.0200195312.0399780273-.0200195312.0599975586-.0599975586.1699829102-.1099853516.3499755859-.1499633789.5299682617-.1500244141.5700073242-.2600097656,1.1500244141-.3200073242,1.7399902344-.0599975586.450012207-.0900268555.9100341797-.0900268555,1.3700561523v.1099853516c0,.2099609375.0100097656.4099731445.0200195312.6199951172,0,.1499633789.0200195312.299987793.0299682617.450012207.0100097656.1199951172.0200195312.2299804688.0400390625.3499755859.0299682617.2200317383.0599975586.4400024414.0899658203.6500244141.0300292969.2299804688.0800170898.4599609375.1400146484.6799926758.0399780273.2099609375.0900268555.4099731445.1500244141.6099853516.0599975586.2200317383.1199951172.4299926758.1999511719.6400146484.200012207.5999755859.4400024414,1.1799926758.7400512695,1.7399902344.0999755859.200012207.2099609375.4000244141.3299560547.5900268555.1199951172.2099609375.25.4199829102.3900146484.6199951172.1000366211.1499633789.2100219727.3099975586.3300170898.4599609375.1599731445.2200317383.3200073242.4299926758.4899902344.6300048828.1599731445.1799926758.3200073242.3500366211.4799804688.5200195312.1600341797.1799926758.3300170898.3499755859.5100097656.5100097656.0400390625.049987793.0900268555.0899658203.1300048828.1300048828-12.700012207-10.8000488281-17.799987793-22.1500244141-19.5800170898-27.2800292969-.25-.7199707031-.4400024414-1.3200073242-.5799560547-1.7799682617-.0200195312-.0900268555-.0500488281-.1800537109-.0700073242-.2600097656-.0200195312-.0800170898-.0400390625-.1500244141-.0599975586-.2200317383-.0200195312-.0700073242-.0400390625-.1300048828-.049987793-.1900024414-.0200195312-.0700073242-.0300292969-.1199951172-.0400390625-.1699829102-.0299682617-.0800170898-.0399780273-.1400146484-.049987793-.2199707031-.7399902344-3.7200317383-1.1400146484-7.4600219727-1.2100219727-11.200012207-.0100097656-.4000244141-.0100097656-.7900390625-.0100097656-1.1900024414,0-.7399902344.0100097656-1.4600219727.0400390625-2.1900024414.7700195312-22.6799926758,13.4699707031-44.2900390625,35.1900024414-55.3500366211L307.265661783,0l-123.1799926758,269.2300415039-23.5900268555,51.9599609375-9.1300048828,20.0800170898Z" style="fill: url(#radial-gradient);"/>
  <path d="m307.065649576,444.299987793l-40.3599853516-3.9099731445c7.7700195312-.1599731445,12.8900146484-6.7399902344,12.799987793-13.4799804688.0399780273-2.8200073242-.8400268555-5.6900024414-2.799987793-8.1400146484l30.3599853516,25.5299682617Z" style="fill: url(#linear-gradient-2);"/>
  <path d="m457.8856569002,519.2900390625l-74.0599975586-9.2600097656h-.0100097656c-1.0999755859-.2200317383-2.1099853516-.4000244141-3.0299682617-.5200195312l-.1600341797-.0100097656-.4899902344-.4199829102-73.0700073242-64.7800292969-30.3599853516-25.5299682617-1.8099975586-1.5100097656-9.6699829102-8.1300048828-40.7600097656-34.2199707031-4.2100219727-3.5400390625-59.7600097656-50.1799926758,23.5900268555-51.9599609375.049987793.0399780273,65.549987793,59.0299682617.0900268555.0800170898,208.1099853516,190.9100341797Z" style="fill: url(#linear-gradient-3);"/>
  <path d="m147.71567399,236.4800415039l-22.4200439453,55.1699829102-78.0599975586-65.5599975586c-.1900024414-.1600341797-.3699951172-.3200073242-.549987793-.4899902344-.1799926758-.1600341797-.3499755859-.3300170898-.5100097656-.5100097656-.1599731445-.1699829102-.3200073242-.3400268555-.4799804688-.5200195312-.1699829102-.200012207-.3300170898-.4099731445-.4899902344-.6300048828-.1199951172-.1499633789-.2299804688-.3099975586-.3300170898-.4599609375-.1400146484-.200012207-.2700195312-.4100341797-.3900146484-.6199951172-.1199951172-.1900024414-.2299804688-.3900146484-.3299560547-.5900268555-.3000488281-.5599975586-.5400390625-1.1400146484-.7400512695-1.7399902344-.0699462891-.2100219727-.1399536133-.4199829102-.1999511719-.6400146484-.0599975586-.200012207-.1100463867-.4000244141-.1500244141-.6099853516-.0599975586-.2200317383-.1099853516-.450012207-.1400146484-.6799926758-.0299682617-.2100219727-.0599975586-.4299926758-.0899658203-.6500244141-.0200195312-.1199951172-.0300292969-.2299804688-.0400390625-.3499755859-.0099487305-.1500244141-.0299682617-.3000488281-.0299682617-.450012207-.0100097656-.2100219727-.0200195312-.4100341797-.0200195312-.6199951172v-.1099853516c0-.4600219727.0300292969-.9200439453.0900268555-1.3700561523.0599975586-.5899658203.1699829102-1.1699829102.3200073242-1.7399902344.0399780273-.1799926758.0899658203-.3599853516.1499633789-.5299682617,0-.0200195312.0100097656-.0400390625.0200195312-.0599975586.0399780273-.1300048828.0899658203-.2700195312.1199951172-.3900146484q.0100097656-.0100097656.0100097656-.0200195312c.0700073242-.1999511719.1400146484-.3899536133.2199707031-.5899658203.0900268555-.2300415039.200012207-.4600219727.3099975586-.6900024414.0800170898-.1799926758.1700439453-.3599853516.2800292969-.5400390625.0100097656-.0299682617.0299682617-.0599975586.049987793-.0899658203.0300292969-.0599975586.0599975586-.1199951172.0900268555-.1799926758.0799560547-.1400146484.1499633789-.2700195312.2399902344-.4000244141.0800170898-.1300048828.1599731445-.25.25-.3800048828.1099853516-.1699829102.2299804688-.3399658203.3599853516-.5100097656.1599731445-.2199707031.3300170898-.4400024414.5200195312-.6499633789.0999755859-.1199951172.2099609375-.25.3299560547-.3699951172.0200195312-.0200195312.0400390625-.049987793.0700073242-.0700073242.0599975586-.0700073242.1199951172-.1300048828.1900024414-.200012207.2200317383-.2199707031.4600219727-.4400024414.700012207-.6500244141q.0100097656-.0099487305.0200195312-.0199584961c.0199584961-.0100097656.0299682617-.0300292969.049987793-.0400390625.3300170898-.2899780273.700012207-.5599975586,1.0800170898-.8199462891.0700073242-.0500488281.1399536133-.1000366211.2099609375-.1400146484.2100219727-.1500244141.4299926758-.2800292969.6600341797-.4100341797.0399780273-.0199584961.0899658203-.049987793.1400146484-.0799560547l11.7899780273-6.5100097656h.0200195312l27.8999633789-15.4100341797,58.7800292969,52.9200439453Z" style="fill: url(#linear-gradient-4);"/>
  <path d="m180.6256471346,155.4400024414c3.8400268555-9.4400024414-5.9400024414-18.4599609375-14.9099731445-14.2699584961l27.2099609375-14.8800048828-15.4199829102,36.8399658203,3.1199951172-7.6900024414Z" style="fill: #dd2991;"/>
</svg>