<?xml version="1.0" encoding="UTF-8"?>
<svg id="Layer_4" data-name="Layer 4" xmlns="http://www.w3.org/2000/svg" xmlns:xlink="http://www.w3.org/1999/xlink" viewBox="0 0 483.43 524.19">
  <defs>
    <style>
      .cls-1 {
        fill: url(#linear-gradient-2);
      }

      .cls-2 {
        fill: url(#radial-gradient);
      }

      .cls-3 {
        fill: #dd2991;
      }

      .cls-4 {
        fill: url(#linear-gradient-5);
      }

      .cls-5 {
        fill: url(#linear-gradient-3);
      }

      .cls-6 {
        fill: url(#linear-gradient);
      }

      .cls-7 {
        fill: url(#linear-gradient-4);
      }
    </style>
    <radialGradient id="radial-gradient" cx="202.9" cy="254.75" fx="388.54" fy="254.75" r="185.74" gradientTransform="translate(0 7.65) scale(1 .97)" gradientUnits="userSpaceOnUse">
      <stop offset="0" stop-color="#ef5ba1"/>
      <stop offset="1" stop-color="#e54498"/>
    </radialGradient>
    <linearGradient id="linear-gradient" x1="226.22" y1="261.4" x2="336.35" y2="56.71" gradientUnits="userSpaceOnUse">
      <stop offset="0" stop-color="#c51b52"/>
      <stop offset="1" stop-color="#d4206d"/>
    </linearGradient>
    <linearGradient id="linear-gradient-2" x1="266.71" y1="431.54" x2="307.07" y2="431.54" gradientUnits="userSpaceOnUse">
      <stop offset="0" stop-color="#e54498"/>
      <stop offset=".01" stop-color="#e44296"/>
      <stop offset=".23" stop-color="#d62f7e"/>
      <stop offset=".46" stop-color="#cb216c"/>
      <stop offset=".71" stop-color="#c51962"/>
      <stop offset="1" stop-color="#c4175f"/>
    </linearGradient>
    <linearGradient id="linear-gradient-3" x1="393.34" y1="495.31" x2="171.76" y2="294.55" gradientUnits="userSpaceOnUse">
      <stop offset="0" stop-color="#e54498"/>
      <stop offset=".19" stop-color="#dd3485"/>
      <stop offset=".43" stop-color="#d72673"/>
      <stop offset=".69" stop-color="#d31d69"/>
      <stop offset="1" stop-color="#d21b66"/>
    </linearGradient>
    <linearGradient id="linear-gradient-4" x1="211.84" y1="325.78" x2="55.62" y2="194.34" gradientUnits="userSpaceOnUse">
      <stop offset="0" stop-color="#db3f96"/>
      <stop offset="1" stop-color="#d21b66"/>
    </linearGradient>
    <linearGradient id="linear-gradient-5" x1="191.78" y1="349.53" x2="144.09" y2="449.87" xlink:href="#linear-gradient"/>
  </defs>
  <path class="cls-2" d="m380.63,509.5l-43.48-5.81-171.05-20.9-69.68-8.51c-17.38-2.13-29.37-16.98-29.28-33.23.03-4.1.82-8.28,2.48-12.36l55.68-137.04,22.42-55.17,24.9-61.3,4.89-12.05,15.42-36.84-27.21,14.88-.07.03c-.22.11-.45.23-.67.35l-3.63,2-72.41,40.01-27.9,15.41h-.02l-11.79,6.51c-.05.03-.1.06-.14.08-.23.13-.45.26-.66.41-.07.04-.14.09-.21.14-.38.26-.75.53-1.08.82-.02.01-.03.03-.05.04t-.02.02c-.24.21-.48.43-.7.65-.07.07-.13.13-.19.2-.03.02-.05.05-.07.07-.12.12-.23.25-.33.37-.19.21-.36.43-.52.65-.13.17-.25.34-.36.51-.09.13-.17.25-.25.38-.09.13-.16.26-.24.4-.03.06-.06.12-.09.18-.02.03-.04.06-.05.09-.11.18-.2.36-.28.54-.11.23-.22.46-.31.69-.08.2-.15.39-.22.59t-.01.02c-.03.12-.08.26-.12.39-.01.02-.02.04-.02.06-.06.17-.11.35-.15.53-.15.57-.26,1.15-.32,1.74-.06.45-.09.91-.09,1.37v.11c0,.21.01.41.02.62,0,.15.02.3.03.45.01.12.02.23.04.35.03.22.06.44.09.65.03.23.08.46.14.68.04.21.09.41.15.61.06.22.12.43.2.64.2.6.44,1.18.74,1.74.1.2.21.4.33.59.12.21.25.42.39.62.1.15.21.31.33.46.16.22.32.43.49.63.16.18.32.35.48.52.16.18.33.35.51.51.04.05.09.09.13.13-12.7-10.8-17.8-22.15-19.58-27.28-.25-.72-.44-1.32-.58-1.78-.02-.09-.05-.18-.07-.26-.02-.08-.04-.15-.06-.22-.02-.07-.04-.13-.05-.19-.02-.07-.03-.12-.04-.17-.03-.08-.04-.14-.05-.22-.74-3.72-1.14-7.46-1.21-11.2-.01-.4-.01-.79-.01-1.19,0-.74.01-1.46.04-2.19.77-22.68,13.47-44.29,35.19-55.35L307.27,0l-123.18,269.23-23.59,51.96-.25-.2-8.88,20.28-37.86,86.47-.14.34,63.87,5.15,15.02,1.21,72.37,5.85.64.05c.49.04.97.05,1.44.05l40.36,3.91,73.07,64.78.49.42Z"/>
  <polygon class="cls-6" points="384.63 69.88 249.78 328.38 184.14 269.27 184.09 269.23 307.27 0 384.63 69.88"/>
  <path class="cls-1" d="m307.07,444.3l-40.36-3.91c7.77-.16,12.89-6.74,12.8-13.48.04-2.82-.84-5.69-2.8-8.14l30.36,25.53Z"/>
  <path class="cls-5" d="m457.89,519.29l-74.06-9.26h-.01c-1.1-.22-2.11-.4-3.03-.52h-.16s-.49-.43-.49-.43l-73.07-64.78-30.36-25.53-1.81-1.51-9.67-8.13-40.76-34.22-4.21-3.54-59.76-50.18,23.59-51.96.05.04,65.55,59.03.09.08,208.11,190.91Z"/>
  <path class="cls-7" d="m147.72,236.48l-22.42,55.17-78.06-65.56c-.19-.16-.37-.32-.55-.49-.18-.16-.35-.33-.51-.51-.16-.17-.32-.34-.48-.52-.17-.2-.33-.41-.49-.63-.12-.15-.23-.31-.33-.46-.14-.2-.27-.41-.39-.62-.12-.19-.23-.39-.33-.59-.3-.56-.54-1.14-.74-1.74-.07-.21-.14-.42-.2-.64-.06-.2-.11-.4-.15-.61-.06-.22-.11-.45-.14-.68-.03-.21-.06-.43-.09-.65-.02-.12-.03-.23-.04-.35,0-.15-.03-.3-.03-.45-.01-.21-.02-.41-.02-.62v-.11c0-.46.03-.92.09-1.37.06-.59.17-1.17.32-1.74.04-.18.09-.36.15-.53,0-.02.01-.04.02-.06.04-.13.09-.27.12-.39t.01-.02c.07-.2.14-.39.22-.59.09-.23.2-.46.31-.69.08-.18.17-.36.28-.54.01-.03.03-.06.05-.09.03-.06.06-.12.09-.18.08-.14.15-.27.24-.4.08-.13.16-.25.25-.38.11-.17.23-.34.36-.51.16-.22.33-.44.52-.65.1-.12.21-.25.33-.37.02-.02.04-.05.07-.07.06-.07.12-.13.19-.2.22-.22.46-.44.7-.65t.02-.02s.03-.03.05-.04c.33-.29.7-.56,1.08-.82.07-.05.14-.1.21-.14.21-.15.43-.28.66-.41.04-.02.09-.05.14-.08l11.79-6.51h.02l27.9-15.41,58.78,52.92Z"/>
  <path class="cls-3" d="m180.63,155.44c3.84-9.44-5.94-18.46-14.91-14.27l27.21-14.88-15.42,36.84,3.12-7.69Z"/>
  <polygon class="cls-4" points="224.47 374.91 192.26 434.44 177.24 433.23 113.37 428.08 113.51 427.74 151.37 341.27 160.5 321.19 220.26 371.37 224.47 374.91"/>
</svg>